<svg id="Capa_1" enable-background="new 0 0 505.675 505.675" height="512" viewBox="0 0 505.675 505.675" width="512" xmlns="http://www.w3.org/2000/svg"><path d="m504.278 38.841c-2.407-3.37-7.089-4.153-10.461-1.747-.342.244-18.334 12.968-52.187 31.972-12.933-6.944-24.469-17.659-27.197-20.276.24-.457.471-.921.683-1.4 2.429-5.497 2.573-11.611.404-17.216s-6.391-10.03-11.888-12.459c-11.348-5.014-24.66.137-29.675 11.484-5.015 11.348.137 24.66 11.484 29.675 2.949 1.303 6.028 1.92 9.063 1.92 3.069 0 6.085-.643 8.871-1.833 1.383 1.366 10.789 10.495 23.031 18.479-11.778 6.353-25.03 13.217-39.712 20.414-2.805-4.421-9.19-13.818-18.591-23.811-17.12-18.195-36.208-29.668-55.203-33.179-19.707-3.642-35.769-7.495-49.106-11.778-16.025-5.146-27.84-10.875-35.119-17.027-3.956-3.345-9.407-3.814-13.887-1.192-4.499 2.632-6.77 7.637-5.788 12.749 3.506 18.227 14.203 52.022 46.452 73.575 20.099 13.434 45.36 20.168 75.452 20.168 4.981 0 10.11-.207 15.354-.576-12.649 5.655-26.047 11.407-40.193 17.185-15.197 6.207-29.304 13.653-42.361 21.869-9.994-14.046-47.681-61.698-113.939-85.546-18.193-6.548-37.325-9.691-56.879-9.368-4.142.071-7.442 3.485-7.372 7.626.07 4.099 3.414 7.373 7.497 7.373.043 0 .087-.001.13-.001 17.731-.304 35.068 2.553 51.544 8.483 47.323 17.033 79.555 47.733 96.079 66.755-29.58-9.25-79.521-28.323-101.062-36.811-3.851-1.518-8.208.374-9.727 4.228s.374 8.209 4.228 9.727c7.117 2.805 51.813 20.337 86.709 32.14-24.525 1.784-56.855 2.519-84.285-2.306-41.525-7.303-97.557-49.336-115.99-63.911 9.735-4.94 24.756-11.274 43.51-15.089 4.059-.826 6.68-4.786 5.854-8.845-.826-4.06-4.788-6.682-8.845-5.854-21.556 4.387-38.601 11.85-49.104 17.34-4.153 2.17-6.899 6.251-7.347 10.914-.448 4.665 1.472 9.194 5.136 12.115 22.379 17.846 79.28 60.206 124.189 68.104 16.578 2.915 34.564 3.938 51.663 3.938 19.779 0 38.35-1.371 52.143-2.766-17.414 13.676-32.448 28.402-45.119 42.66-8.753-7.08-44.696-33.564-96.261-36.94-46.763-3.063-80.244 23.245-92.472 34.696v.001c-3.139 2.94-4.55 7.221-3.775 11.45.775 4.23 3.614 7.733 7.593 9.37 17.108 7.038 57.817 22.283 89.353 22.283 3.021 0 5.961-.14 8.785-.44 24.485-2.606 51.442-11.805 68.781-18.601-1.889 2.466-3.702 4.892-5.431 7.261-9.977 13.669-18.087 26.534-24.453 37.567-12.183-1.564-22.441-1.311-24.129-1.256-.107-.239-.195-.483-.311-.72-2.647-5.396-7.237-9.438-12.924-11.381-5.688-1.944-11.792-1.555-17.186 1.091-5.396 2.647-9.438 7.237-11.381 12.924s-1.556 11.791 1.091 17.186 7.237 9.438 12.924 11.381c2.386.815 4.846 1.221 7.295 1.221 3.389-.001 6.759-.775 9.891-2.312 5.396-2.647 9.438-7.237 11.381-12.924.169-.493.297-.993.43-1.492 2.095-.042 7.9-.077 15.082.531-4.264 8.157-7.157 14.429-8.759 18.072-4.45 2.582-43.203 26.13-63.555 74.247-16.839 39.81-4.243 77.082 1.954 91.259 0 0 0 0 .001.001 1.731 3.96 5.311 6.723 9.576 7.392.658.103 1.315.154 1.967.154 3.567 0 6.974-1.517 9.386-4.248 37.145-42.06 46.427-69.241 48.693-78.975 6.912-29.685 4.886-66.788 3.882-79.67.193-.326.365-.671.511-1.034.128-.319 13.137-32.339 40.749-70.171.62-.85 1.26-1.712 1.902-2.576-7.826 24.635-18.971 65.536-20.161 101.793-1.484 45.218 27.966 109.222 40.696 134.641 2.203 4.4 6.438 7.346 11.328 7.879.532.058 1.061.087 1.588.087 4.335 0 8.441-1.938 11.216-5.358 14.673-18.082 47.83-67.1 38.836-131.57-11.004-78.881-59.316-128.248-63.385-132.283 12.838-14.509 28.204-29.536 46.131-43.316-.771 20.627 7.465 43.151 8.953 47.031-4.405 4.11-7.167 9.96-7.167 16.446 0 12.407 10.093 22.5 22.5 22.5s22.5-10.093 22.5-22.5-10.093-22.5-22.5-22.5c-.525 0-1.045.024-1.562.061-3.91-10.496-11.721-38.15-5.368-52.671.135-.31.24-.624.331-.94 13.589-8.915 28.41-16.963 44.496-23.533 16.786-6.857 32.547-13.683 47.261-20.36-13.525 21.279-33.865 56.486-43.936 89.873-12.498 41.435-1.283 107.949 4.118 134.622 1.067 5.271 4.705 9.562 9.729 11.475 1.814.691 3.699 1.031 5.57 1.031 3.311 0 6.579-1.064 9.329-3.125 12.29-9.21 35.28-29.218 51.161-59.748 1.911-3.674.482-8.203-3.193-10.115-3.674-1.91-8.202-.482-10.115 3.193-14.508 27.891-35.58 46.222-46.848 54.665-.086.064-.263.195-.565.081-.302-.115-.346-.331-.367-.435-5.176-25.562-15.974-89.138-4.458-127.313 9.519-31.558 29.381-65.825 42.453-86.417-.852 52.744-20.651 116.399-20.881 117.13-1.242 3.951.954 8.162 4.905 9.404.749.235 1.506.347 2.252.347 3.188 0 6.145-2.049 7.152-5.25.886-2.816 17.535-56.323 20.984-107.372 7.831 23.723 15.037 58.164 10.25 97.35-.844 6.915-2.212 13.799-4.065 20.462-1.11 3.991 1.225 8.125 5.216 9.235 3.993 1.112 8.126-1.225 9.235-5.216 2.053-7.382 3.569-15.007 4.504-22.663 8.018-65.629-14.882-117.857-23.526-134.767 16.149-7.821 30.688-15.294 43.561-22.204-.885 15.275 1.188 29.17 1.503 31.157-.224.136-.456.253-.677.397-5.03 3.289-8.478 8.34-9.708 14.223-2.54 12.143 5.272 24.089 17.416 26.631 1.547.324 3.091.479 4.613.479 10.422 0 19.801-7.299 22.018-17.895 1.23-5.882.097-11.892-3.193-16.922s-8.341-8.478-14.223-9.708c-.51-.107-1.022-.172-1.534-.244-.57-3.947-2.814-21.482-.178-36.902 35.661-19.943 54.678-33.403 55.032-33.657 3.37-2.405 4.151-7.087 1.744-10.458zm-109.778 7.076c-4.188 0-7.583-3.395-7.583-7.583s3.395-7.583 7.583-7.583 7.583 3.395 7.583 7.583c0 4.187-3.395 7.583-7.583 7.583zm-294.25 253c-4.188 0-7.583-3.395-7.583-7.583s3.395-7.583 7.583-7.583 7.583 3.395 7.583 7.583c0 4.187-3.395 7.583-7.583 7.583zm21.402 103.224c-1.528 6.565-9.081 30.622-42.748 69.498-5.627-14.355-13.743-44.304-.405-75.835 12.918-30.542 34.504-50.442 47.218-60.178.808 16.01 1.171 44.03-4.065 66.515zm-17.301-159.894c-7.342.781-35.001 1.622-87.285-19.354 12.594-10.989 40.657-30.592 78.411-28.122 36.675 2.401 65.185 18.032 79.396 27.545-15.868 6.485-45.105 17.226-70.522 19.931zm103.867 130.454c.135 4.055 3.464 7.251 7.492 7.251.084 0 .169-.001.253-.004 4.14-.137 7.384-3.605 7.247-7.744-.096-2.903-2.092-59.909-11.111-110.455 14.816 21.305 33.714 55.879 39.853 99.886 8.074 57.875-21.404 102.315-35.093 119.385-9.961-19.991-40.113-84.261-38.722-126.644 1.068-32.538 10.942-70.068 18.409-94.207 9.51 50.794 11.648 111.813 11.672 112.532zm65.622-132.761c4.136 0 7.5 3.364 7.5 7.5s-3.364 7.5-7.5 7.5-7.5-3.364-7.5-7.5 3.364-7.5 7.5-7.5zm-10.052-155.218c-23.078-15.424-33.6-37.987-38.367-56.426 16.723 11.022 44.017 19.791 84.753 27.319 27.773 5.133 49.164 29.751 59.075 43.324-44.68 7.489-80.118 2.721-105.461-14.217zm188.545 57.486c0 4.188-3.395 7.583-7.583 7.583s-7.583-3.395-7.583-7.583 3.395-7.583 7.583-7.583 7.583 3.395 7.583 7.583z"/></svg>