<svg width="40" height="37" viewBox="0 0 40 37" fill="none" xmlns="http://www.w3.org/2000/svg">
<path d="M39.7743 0.148305C39.5964 -0.00778179 39.3431 -0.0439949 39.1285 0.0555613L0.345793 18.0751C0.137 18.1722 0.00254551 18.3805 3.56919e-05 18.6107C-0.00247413 18.8408 0.127558 19.052 0.33432 19.1535L11.3098 24.5398C11.511 24.6387 11.751 24.6163 11.9308 24.482L22.6019 16.5062L14.2246 25.1233C14.1051 25.2463 14.0442 25.4147 14.0573 25.5856L14.8914 36.4482C14.9099 36.6889 15.0713 36.8947 15.3006 36.9701C15.3619 36.9902 15.4249 37 15.4872 37C15.658 37 15.8241 36.9267 15.9397 36.7929L21.7651 30.0424L28.9665 33.4833C29.1228 33.558 29.3037 33.5611 29.4626 33.492C29.6214 33.4228 29.7424 33.2882 29.7942 33.123L39.9504 0.776597C40.0214 0.550713 39.9522 0.304392 39.7743 0.148305Z" fill="white"/>
</svg>
